<?xml version="1.0" standalone="no"?>
<svg xmlns="http://www.w3.org/2000/svg" viewBox="0 0 185.544 28.992" width="185.544" height="28.992"><g fill="#9a3796" color="#9a3796" transform="translate(0, 0) scale(0.6041667)"><svg width="48.0" height="40.0" x="0.0" y="0.0" viewBox="0 0 48 40"><path fill="currentColor" fill-rule="evenodd" d="M41.576 0L12.872 28.703v-2.95L38.625 0h-4.1l-10.9 10.898L12.725 0h-4.1l12.949 12.95-1.476 1.474L5.675 0h-4.1l16.474 16.475-1.475 1.475L0 1.376V40h2.9V8.378l2.087 2.086V40h2.9V13.364l2.086 2.087V40h2.9v-.146l10.752-10.752L34.525 40h2.951V15.253l2.086-2.087V40h2.9V10.266l2.087-2.086V40h2.898V5.434h-.153l.153-.154V1.178L12.872 35.754v-2.95L45.675 0h-4.1zm-8.849 20l1.848-1.848v3.697L32.727 20zm-19.855-1.65L14.522 20l-1.65 1.65V18.35zm16.329 5.176l1.476-1.474 3.898 3.899v2.952l-5.374-5.377zm-3.526 3.526l1.475-1.476 7.425 7.426v2.95l-8.9-8.9z"></path></svg></g><line x1="41" y1="1" x2="41" y2="23.167" stroke="#cdcfdd" stroke-linecap="round"></line><path fill="#cdcfdd" fill-rule="nonzero" d="M9.58 18.58L9.58 18.58Q10.18 19.61 10.18 20.57L10.18 20.57Q10.18 20.78 10.14 20.96Q10.10 21.14 10.06 21.34L10.06 21.34Q9.65 21.29 9.20 21.26Q8.76 21.24 8.28 21.24L8.28 21.24Q7.70 21.24 7.12 21.28Q6.53 21.31 5.81 21.38Q5.09 21.46 4.20 21.58Q3.31 21.70 2.14 21.89L2.14 21.89Q1.58 21.70 1.03 21.13Q0.48 20.57 0 19.78L0 19.78Q0.24 19.25 0.60 18.47Q0.96 17.69 1.44 16.57Q1.92 15.46 2.51 13.96Q3.10 12.46 3.77 10.49L3.77 10.49Q4.20 9.19 4.51 8.21Q4.82 7.22 5.08 6.30Q5.33 5.38 5.57 4.37Q5.81 3.36 6.10 2.04L6.10 2.04Q7.06 2.23 7.76 2.75Q8.47 3.26 9.12 4.22L9.12 4.22Q8.93 4.54 8.62 5.23Q8.30 5.93 7.88 6.92Q7.46 7.92 6.96 9.18Q6.46 10.44 5.90 11.88L5.90 11.88Q5.38 13.30 4.87 14.54Q4.37 15.79 3.97 16.80Q3.58 17.81 3.34 18.53Q3.10 19.25 3.10 19.61L3.10 19.61Q3.48 19.58 3.79 19.56Q4.10 19.54 4.44 19.48Q4.78 19.42 5.17 19.33Q5.57 19.25 6.12 19.10L6.12 19.10Q6.60 18.98 7.01 18.90Q7.42 18.82 7.81 18.76Q8.21 18.70 8.63 18.66Q9.05 18.62 9.58 18.58ZM11.59 18.34L11.59 18.34Q11.59 18.12 11.63 17.80Q11.66 17.47 11.76 16.93Q11.86 16.39 12.01 15.62Q12.17 14.86 12.41 13.78L12.41 13.78Q12.46 13.54 12.62 13.01Q12.79 12.48 13.07 11.89Q13.34 11.30 13.74 10.75Q14.14 10.20 14.69 9.94L14.69 9.94Q15.10 10.03 15.77 10.43Q16.44 10.82 16.92 11.52L16.92 11.52Q16.37 12.14 16.00 12.77Q15.62 13.39 15.32 14.06Q15.02 14.74 14.77 15.46Q14.52 16.18 14.21 16.97L14.21 16.97Q13.94 17.64 13.73 18.35Q13.51 19.06 13.49 19.58L13.49 19.58Q13.49 20.02 13.48 20.20Q13.46 20.38 13.34 20.38L13.34 20.38Q13.25 20.38 12.96 20.26Q12.67 20.14 12.37 19.88Q12.07 19.63 11.83 19.25Q11.59 18.86 11.59 18.34ZM16.18 7.92L16.18 7.92Q16.18 7.78 16.25 7.49L16.25 7.49Q16.13 7.37 16.04 7.13Q15.96 6.89 15.96 6.70L15.96 6.70Q15.96 6.48 16.02 6.11Q16.08 5.74 16.18 5.30Q16.27 4.87 16.42 4.40Q16.56 3.94 16.70 3.55L16.70 3.55Q16.99 3.55 17.41 3.71Q17.83 3.86 18.26 4.12Q18.70 4.37 19.06 4.67Q19.42 4.97 19.61 5.23L19.61 5.23Q19.34 5.50 18.91 5.96Q18.48 6.43 18.07 6.95Q17.66 7.46 17.33 7.92Q16.99 8.38 16.90 8.57L16.90 8.57Q16.61 8.52 16.39 8.32Q16.18 8.11 16.18 7.92ZM18.38 26.88L18.38 26.88Q17.78 26.64 17.66 25.97L17.66 25.97Q17.57 25.32 16.85 24.91L16.85 24.91Q17.04 23.69 17.28 22.44Q17.52 21.19 17.89 19.60Q18.26 18 18.83 15.88Q19.39 13.75 20.26 10.73L20.26 10.73Q19.46 10.73 19.01 10.75Q18.55 10.78 18.12 10.85L18.12 10.85Q18.02 10.75 17.96 10.58Q17.90 10.42 17.90 10.27L17.90 10.27Q18.14 10.18 18.89 10.02Q19.63 9.86 20.52 9.74L20.52 9.74Q21.10 7.92 21.84 6.47Q22.58 5.02 23.45 3.98Q24.31 2.95 25.27 2.40Q26.23 1.85 27.22 1.85L27.22 1.85Q27.50 1.85 27.77 1.88Q28.03 1.92 28.18 1.92L28.18 1.92Q28.39 1.75 28.75 1.62Q29.11 1.49 29.38 1.49L29.38 1.49Q29.66 1.49 30.12 1.80L30.12 1.80Q29.93 2.14 29.71 2.71Q29.50 3.29 29.35 3.84L29.35 3.84Q28.75 5.62 28.08 6.14L28.08 6.14Q27.82 6.14 27.79 5.45L27.79 5.45Q27.77 4.94 27.65 4.46L27.65 4.46Q27.55 4.25 27.52 4.08Q27.48 3.91 27.48 3.65L27.48 3.65Q27.48 3.50 27.50 3.30Q27.53 3.10 27.60 2.62L27.60 2.62Q27.19 2.62 26.70 3.12Q26.21 3.62 25.67 4.55Q25.13 5.47 24.58 6.74Q24.02 8.02 23.52 9.55L23.52 9.55L25.54 9.48Q25.66 9.60 25.74 10.02Q25.82 10.44 25.85 10.90L25.85 10.90L23.21 10.75Q22.30 13.46 21.50 15.94Q20.71 18.41 20.09 20.50Q19.46 22.58 19.02 24.23Q18.58 25.87 18.38 26.88ZM33.77 10.01L33.77 10.01Q33.67 11.50 33.24 12.56Q32.81 13.63 32.00 14.44Q31.20 15.24 30.05 15.89Q28.90 16.54 27.36 17.14L27.36 17.14Q27.36 17.28 27.35 17.44Q27.34 17.59 27.34 17.76L27.34 17.76Q27.34 18.07 27.38 18.41Q27.43 18.74 27.55 19.03Q27.67 19.32 27.89 19.50Q28.10 19.68 28.44 19.68L28.44 19.68Q29.09 19.68 29.71 19.39Q30.34 19.10 30.90 18.68Q31.46 18.26 31.96 17.77Q32.45 17.28 32.83 16.87L32.83 16.87Q33.07 17.09 33.24 17.28L33.24 17.28Q32.16 18.72 30.88 19.67Q29.59 20.62 28.44 20.88L28.44 20.88Q26.78 20.69 25.86 19.67Q24.94 18.65 24.94 17.21L24.94 17.21Q24.94 16.22 25.21 15.20Q25.49 14.18 25.98 13.24Q26.47 12.29 27.13 11.45Q27.79 10.61 28.55 9.98Q29.30 9.36 30.11 9.00Q30.91 8.64 31.70 8.64L31.70 8.64Q32.81 8.78 33.77 10.01ZM32.11 10.80L32.11 10.80Q31.46 10.90 30.77 11.33Q30.07 11.76 29.46 12.48Q28.85 13.20 28.34 14.16Q27.84 15.12 27.55 16.22L27.55 16.22Q29.47 15.26 30.74 13.86Q32.02 12.46 32.11 10.80ZM35.14 18.58L35.14 18.58Q35.14 17.71 35.41 16.33Q35.69 14.95 36.13 13.36Q36.58 11.76 37.15 10.09Q37.73 8.42 38.33 6.96Q38.93 5.50 39.50 4.39Q40.08 3.29 40.54 2.81L40.54 2.81Q40.78 2.83 41.17 2.99Q41.57 3.14 41.98 3.36Q42.38 3.58 42.72 3.83Q43.06 4.08 43.15 4.30L43.15 4.30Q42.46 4.92 41.77 6.18Q41.09 7.44 40.45 9.05Q39.82 10.66 39.26 12.44Q38.71 14.23 38.30 15.91Q37.90 17.59 37.67 19.03Q37.44 20.47 37.44 21.36L37.44 21.36Q37.44 21.77 37.51 21.86L37.51 21.86Q36.98 21.84 36.74 21.68Q36.50 21.53 36.37 21.35Q36.24 21.17 36.13 20.99Q36.02 20.81 35.81 20.71L35.81 20.71Q35.64 20.64 35.52 20.38Q35.40 20.11 35.32 19.79Q35.23 19.46 35.18 19.13Q35.14 18.79 35.14 18.58ZM45.36 8.30L45.36 8.30Q45.98 8.50 46.54 9.16Q47.09 9.82 47.35 10.61L47.35 10.61Q47.09 11.26 46.54 12.17Q45.98 13.08 45.43 14.03Q44.88 14.98 44.44 15.83Q43.99 16.68 43.92 17.23L43.92 17.23Q44.30 16.82 44.77 16.28Q45.24 15.74 45.68 15.20Q46.13 14.66 46.51 14.22Q46.90 13.78 47.11 13.56L47.11 13.56Q47.57 13.08 48.19 12.44Q48.82 11.81 49.50 11.24Q50.18 10.68 50.88 10.28Q51.58 9.89 52.15 9.89L52.15 9.89Q52.78 9.89 53.20 10.31Q53.62 10.73 53.86 11.18L53.86 11.18Q53.86 11.23 53.68 11.32Q53.50 11.40 53.16 11.78L53.16 11.78Q52.82 12.22 52.40 12.97Q51.98 13.73 51.59 14.60Q51.19 15.48 50.93 16.39Q50.66 17.30 50.66 18.05L50.66 18.05Q50.66 18.65 50.82 18.82Q50.98 18.98 51.26 18.98L51.26 18.98Q51.53 18.98 51.82 18.86Q52.10 18.74 52.27 18.74L52.27 18.74Q52.37 18.79 52.43 18.95Q52.49 19.10 52.49 19.22L52.49 19.22Q52.30 19.39 52.03 19.56Q51.77 19.73 51.48 19.87Q51.19 20.02 50.92 20.11Q50.64 20.21 50.42 20.21L50.42 20.21Q49.73 20.21 49.28 20.00Q48.84 19.80 48.59 19.46Q48.34 19.13 48.24 18.66Q48.14 18.19 48.14 17.66L48.14 17.66Q48.14 17.38 48.19 17.02Q48.24 16.66 48.38 16.16Q48.53 15.67 48.79 14.99Q49.06 14.30 49.46 13.34L49.46 13.34Q49.42 13.34 48.82 13.68Q48.22 14.02 47.52 14.71L47.52 14.71Q46.39 15.79 45.49 16.85Q44.59 17.90 43.66 19.20L43.66 19.20Q43.13 19.94 42.73 20.46Q42.34 20.98 42.05 21.14L42.05 21.14Q41.54 20.86 41.30 20.34Q41.06 19.82 40.94 19.27L40.94 19.27Q40.94 18.82 41.08 18.12Q41.21 17.42 41.44 16.57Q41.66 15.72 42.00 14.78Q42.34 13.85 42.74 12.91L42.74 12.91Q43.66 10.80 44.41 9.60Q45.17 8.40 45.36 8.30ZM64.25 9.94L64.25 9.94Q65.02 9.94 65.46 10.37Q65.90 10.80 65.90 11.57L65.90 11.57Q65.90 11.76 65.88 11.96Q65.86 12.17 65.78 12.31L65.78 12.31Q65.47 12.26 65.09 12.23Q64.70 12.19 64.18 12.19L64.18 12.19Q63.10 12.19 62.02 12.38Q60.94 12.58 59.95 12.70L59.95 12.70Q58.87 15.24 58.18 17.47Q57.48 19.70 57.10 21.89L57.10 21.89Q56.28 21.70 55.66 21.19Q55.03 20.69 54.48 19.78L54.48 19.78Q54.65 19.39 54.89 18.85Q55.13 18.31 55.46 17.48Q55.80 16.66 56.27 15.47Q56.74 14.28 57.38 12.62L57.38 12.62Q56.38 12.29 56.06 11.45L56.06 11.45Q56.18 11.33 56.74 11.17Q57.29 11.02 58.08 10.82L58.08 10.82Q58.44 9.89 58.70 9.16Q58.97 8.42 59.18 7.76Q59.40 7.10 59.58 6.47Q59.76 5.83 59.90 5.11L59.90 5.11L59.78 5.11Q58.87 5.11 58.31 4.68Q57.74 4.25 57.74 3.55L57.74 3.55Q57.74 3.36 57.80 3.10Q57.86 2.83 57.96 2.64L57.96 2.64Q58.42 2.71 58.86 2.74Q59.30 2.76 60.02 2.76L60.02 2.76Q61.54 2.76 62.86 2.68Q64.18 2.59 65.24 2.50Q66.31 2.40 67.08 2.32Q67.85 2.23 68.26 2.23L68.26 2.23Q68.81 2.23 69.24 2.81Q69.67 3.38 69.91 4.44L69.91 4.44Q69.14 4.37 68.68 4.34Q68.21 4.32 67.85 4.32L67.85 4.32Q66.62 4.32 65.60 4.43Q64.58 4.54 63.67 4.68L63.67 4.68Q63.53 4.90 63.35 5.23Q63.17 5.57 62.88 6.18Q62.59 6.79 62.15 7.78Q61.70 8.76 61.03 10.27L61.03 10.27Q61.97 10.13 62.82 10.03Q63.67 9.94 64.25 9.94ZM69.82 20.78L69.82 20.78Q68.45 20.64 67.63 19.58Q66.82 18.53 66.82 16.90L66.82 16.90Q66.82 15.94 67.10 14.90Q67.39 13.87 67.92 12.90Q68.45 11.93 69.17 11.06Q69.89 10.20 70.73 9.58L70.73 9.58Q72.05 8.59 73.20 8.59L73.20 8.59Q73.97 9.00 74.71 10.30L74.71 10.30Q74.83 10.30 74.93 10.28Q75.02 10.27 75.14 10.27L75.14 10.27Q76.42 10.27 76.42 12.53L76.42 12.53Q76.42 14.04 75.92 15.40Q75.43 16.75 74.56 17.86Q73.68 18.96 72.47 19.72Q71.26 20.47 69.82 20.78ZM71.04 13.22L71.04 13.22Q70.63 13.78 70.27 14.42Q69.91 15.07 69.65 15.73Q69.38 16.39 69.24 17.00Q69.10 17.62 69.10 18.10L69.10 18.10Q69.10 18.67 69.29 19.20Q69.48 19.73 69.72 19.80L69.72 19.80Q70.80 19.56 71.70 18.90Q72.60 18.24 73.26 17.26Q73.92 16.27 74.29 15.02Q74.66 13.78 74.66 12.36L74.66 12.36Q74.66 11.74 74.59 11.38Q74.52 11.02 74.35 10.75L74.35 10.75Q73.30 11.06 72.47 11.76Q71.64 12.46 71.04 13.22ZM81.46 8.30L81.46 8.30Q82.08 8.50 82.63 9.16Q83.18 9.82 83.45 10.61L83.45 10.61Q83.18 11.26 82.63 12.17Q82.08 13.08 81.53 14.03Q80.98 14.98 80.53 15.83Q80.09 16.68 80.02 17.23L80.02 17.23Q80.40 16.82 80.87 16.28Q81.34 15.74 81.78 15.20Q82.22 14.66 82.61 14.22Q82.99 13.78 83.21 13.56L83.21 13.56Q83.66 13.08 84.29 12.44Q84.91 11.81 85.60 11.24Q86.28 10.68 86.98 10.28Q87.67 9.89 88.25 9.89L88.25 9.89Q88.87 9.89 89.29 10.31Q89.71 10.73 89.95 11.18L89.95 11.18Q89.95 11.23 89.77 11.32Q89.59 11.40 89.26 11.78L89.26 11.78Q88.92 12.22 88.50 12.97Q88.08 13.73 87.68 14.60Q87.29 15.48 87.02 16.39Q86.76 17.30 86.76 18.05L86.76 18.05Q86.76 18.65 86.92 18.82Q87.07 18.98 87.36 18.98L87.36 18.98Q87.62 18.98 87.91 18.86Q88.20 18.74 88.37 18.74L88.37 18.74Q88.46 18.79 88.52 18.95Q88.58 19.10 88.58 19.22L88.58 19.22Q88.39 19.39 88.13 19.56Q87.86 19.73 87.58 19.87Q87.29 20.02 87.01 20.11Q86.74 20.21 86.52 20.21L86.52 20.21Q85.82 20.21 85.38 20.00Q84.94 19.80 84.68 19.46Q84.43 19.13 84.34 18.66Q84.24 18.19 84.24 17.66L84.24 17.66Q84.24 17.38 84.29 17.02Q84.34 16.66 84.48 16.16Q84.62 15.67 84.89 14.99Q85.15 14.30 85.56 13.34L85.56 13.34Q85.51 13.34 84.91 13.68Q84.31 14.02 83.62 14.71L83.62 14.71Q82.49 15.79 81.59 16.85Q80.69 17.90 79.75 19.20L79.75 19.20Q79.22 19.94 78.83 20.46Q78.43 20.98 78.14 21.14L78.14 21.14Q77.64 20.86 77.40 20.34Q77.16 19.82 77.04 19.27L77.04 19.27Q77.04 18.82 77.17 18.12Q77.30 17.42 77.53 16.57Q77.76 15.72 78.10 14.78Q78.43 13.85 78.84 12.91L78.84 12.91Q79.75 10.80 80.51 9.60Q81.26 8.40 81.46 8.30ZM95.76 8.74L95.76 8.74Q96.24 8.74 96.86 9.02Q97.49 9.31 97.97 9.77L97.97 9.77Q97.85 8.81 97.67 7.96Q97.49 7.10 97.14 6.19Q96.79 5.28 96.22 4.20Q95.64 3.12 94.78 1.73L94.78 1.73Q94.85 1.51 95.10 1.22Q95.35 0.94 95.68 0.68Q96.00 0.43 96.35 0.24Q96.70 0.05 97.01 0L97.01 0Q97.68 0.74 98.28 1.86Q98.88 2.98 99.34 4.26Q99.79 5.54 100.04 6.91Q100.30 8.28 100.30 9.53L100.30 9.53Q100.30 10.78 100.02 12.10Q99.74 13.42 99.25 14.68Q98.76 15.94 98.11 17.06Q97.46 18.19 96.71 19.08Q95.95 19.97 95.14 20.53Q94.32 21.10 93.50 21.24L93.50 21.24Q91.85 21.05 90.97 20.17Q90.10 19.30 90.10 17.76L90.10 17.76Q90.10 16.94 90.35 15.98Q90.60 15.02 91.02 14.08Q91.44 13.13 92.00 12.23Q92.57 11.33 93.20 10.61Q93.84 9.89 94.49 9.38Q95.14 8.88 95.76 8.74ZM93.31 20.28L93.31 20.28Q94.15 19.99 94.99 19.01Q95.83 18.02 96.50 16.69Q97.18 15.36 97.60 13.84Q98.02 12.31 98.02 10.90L98.02 10.90Q98.02 10.49 98.02 10.39Q98.02 10.30 97.99 10.20L97.99 10.20Q97.42 10.44 96.77 11.02Q96.12 11.59 95.47 12.35Q94.82 13.10 94.25 13.99Q93.67 14.88 93.22 15.77Q92.76 16.66 92.50 17.47Q92.23 18.29 92.23 18.91L92.23 18.91Q92.23 20.11 93.31 20.28ZM109.51 10.01L109.51 10.01Q109.42 11.50 108.98 12.56Q108.55 13.63 107.75 14.44Q106.94 15.24 105.79 15.89Q104.64 16.54 103.10 17.14L103.10 17.14Q103.10 17.28 103.09 17.44Q103.08 17.59 103.08 17.76L103.08 17.76Q103.08 18.07 103.13 18.41Q103.18 18.74 103.30 19.03Q103.42 19.32 103.63 19.50Q103.85 19.68 104.18 19.68L104.18 19.68Q104.83 19.68 105.46 19.39Q106.08 19.10 106.64 18.68Q107.21 18.26 107.70 17.77Q108.19 17.28 108.58 16.87L108.58 16.87Q108.82 17.09 108.98 17.28L108.98 17.28Q107.90 18.72 106.62 19.67Q105.34 20.62 104.18 20.88L104.18 20.88Q102.53 20.69 101.60 19.67Q100.68 18.65 100.68 17.21L100.68 17.21Q100.68 16.22 100.96 15.20Q101.23 14.18 101.72 13.24Q102.22 12.29 102.88 11.45Q103.54 10.61 104.29 9.98Q105.05 9.36 105.85 9.00Q106.66 8.64 107.45 8.64L107.45 8.64Q108.55 8.78 109.51 10.01ZM107.86 10.80L107.86 10.80Q107.21 10.90 106.51 11.33Q105.82 11.76 105.20 12.48Q104.59 13.20 104.09 14.16Q103.58 15.12 103.30 16.22L103.30 16.22Q105.22 15.26 106.49 13.86Q107.76 12.46 107.86 10.80ZM110.04 19.46L110.04 19.46Q110.16 18.77 110.46 17.63Q110.76 16.49 111.17 15.20Q111.58 13.92 112.03 12.62Q112.49 11.33 112.92 10.30L112.92 10.30Q113.23 9.55 113.47 9.13Q113.71 8.71 114.00 8.42L114.00 8.42Q114.34 8.47 114.70 8.59Q115.06 8.71 115.39 8.88Q115.73 9.05 115.99 9.23Q116.26 9.41 116.40 9.58L116.40 9.58Q115.75 10.34 115.26 11.33Q114.77 12.31 114.26 13.85L114.26 13.85Q115.56 12.70 116.56 11.64Q117.55 10.58 118.42 9.29L118.42 9.29Q118.56 9.17 118.92 9.17L118.92 9.17Q119.26 9.17 119.57 9.28Q119.88 9.38 120.00 9.58L120.00 9.58Q119.57 10.73 119.57 11.86L119.57 11.86Q119.57 12.91 119.88 13.44L119.88 13.44Q119.86 13.58 119.56 13.99Q119.26 14.40 118.90 14.76L118.90 14.76Q118.25 14.42 117.74 13.84Q117.24 13.25 117.00 12.55L117.00 12.55Q115.87 13.34 115.08 14.10Q114.29 14.86 113.72 15.78Q113.16 16.70 112.76 17.90Q112.37 19.10 112.01 20.76L112.01 20.76Q111.79 20.74 111.49 20.60Q111.19 20.47 110.89 20.28Q110.59 20.09 110.35 19.87Q110.11 19.66 110.04 19.46ZM120.31 18.34L120.31 18.34Q120.31 18.12 120.35 17.80Q120.38 17.47 120.48 16.93Q120.58 16.39 120.73 15.62Q120.89 14.86 121.13 13.78L121.13 13.78Q121.18 13.54 121.34 13.01Q121.51 12.48 121.79 11.89Q122.06 11.30 122.46 10.75Q122.86 10.20 123.41 9.94L123.41 9.94Q123.82 10.03 124.49 10.43Q125.16 10.82 125.64 11.52L125.64 11.52Q125.09 12.14 124.72 12.77Q124.34 13.39 124.04 14.06Q123.74 14.74 123.49 15.46Q123.24 16.18 122.93 16.97L122.93 16.97Q122.66 17.64 122.45 18.35Q122.23 19.06 122.21 19.58L122.21 19.58Q122.21 20.02 122.20 20.20Q122.18 20.38 122.06 20.38L122.06 20.38Q121.97 20.38 121.68 20.26Q121.39 20.14 121.09 19.88Q120.79 19.63 120.55 19.25Q120.31 18.86 120.31 18.34ZM124.90 7.92L124.90 7.92Q124.90 7.78 124.97 7.49L124.97 7.49Q124.85 7.37 124.76 7.13Q124.68 6.89 124.68 6.70L124.68 6.70Q124.68 6.48 124.74 6.11Q124.80 5.74 124.90 5.30Q124.99 4.87 125.14 4.40Q125.28 3.94 125.42 3.55L125.42 3.55Q125.71 3.55 126.13 3.71Q126.55 3.86 126.98 4.12Q127.42 4.37 127.78 4.67Q128.14 4.97 128.33 5.23L128.33 5.23Q128.06 5.50 127.63 5.96Q127.20 6.43 126.79 6.95Q126.38 7.46 126.05 7.92Q125.71 8.38 125.62 8.57L125.62 8.57Q125.33 8.52 125.11 8.32Q124.90 8.11 124.90 7.92ZM134.54 10.01L134.54 10.01Q134.45 11.50 134.02 12.56Q133.58 13.63 132.78 14.44Q131.98 15.24 130.82 15.89Q129.67 16.54 128.14 17.14L128.14 17.14Q128.14 17.28 128.12 17.44Q128.11 17.59 128.11 17.76L128.11 17.76Q128.11 18.07 128.16 18.41Q128.21 18.74 128.33 19.03Q128.45 19.32 128.66 19.50Q128.88 19.68 129.22 19.68L129.22 19.68Q129.86 19.68 130.49 19.39Q131.11 19.10 131.68 18.68Q132.24 18.26 132.73 17.77Q133.22 17.28 133.61 16.87L133.61 16.87Q133.85 17.09 134.02 17.28L134.02 17.28Q132.94 18.72 131.65 19.67Q130.37 20.62 129.22 20.88L129.22 20.88Q127.56 20.69 126.64 19.67Q125.71 18.65 125.71 17.21L125.71 17.21Q125.71 16.22 125.99 15.20Q126.26 14.18 126.76 13.24Q127.25 12.29 127.91 11.45Q128.57 10.61 129.32 9.98Q130.08 9.36 130.88 9.00Q131.69 8.64 132.48 8.64L132.48 8.64Q133.58 8.78 134.54 10.01ZM132.89 10.80L132.89 10.80Q132.24 10.90 131.54 11.33Q130.85 11.76 130.24 12.48Q129.62 13.20 129.12 14.16Q128.62 15.12 128.33 16.22L128.33 16.22Q130.25 15.26 131.52 13.86Q132.79 12.46 132.89 10.80Z" transform="translate(51, 2.112)"></path></svg>