<?xml version="1.0" standalone="no"?>
<svg xmlns="http://www.w3.org/2000/svg" viewBox="0 0 206.832 29" width="206.832" height="29"><g fill="#f30909" color="#f30909" transform="translate(0, 0) scale(0.659091)"><svg width="44.0" height="44.0" x="0.0" y="0.0" viewBox="0 0 44 44"><path fill="currentColor" fill-rule="evenodd" d="M21.973 29.756l14.787 8.535-9.168 5.28-5.605-3.224-5.563 3.225-9.182-5.281 14.73-8.535zm0-15.005L44 27.454v6.492l-3.52 2.07-18.506-10.675L3.525 36.016l-3.52-2.042v-6.52L21.973 14.75zM21.97 0l22.026 12.689v10.576L21.984 10.591 0 23.294V12.703L21.97 0z"></path></svg></g><line x1="41" y1="1" x2="41" y2="28" stroke="#24252A" stroke-linecap="round"></line><path fill="#24252A" fill-rule="nonzero" d="M10.54 15.96L10.54 18.94L5.45 18.94Q2.57 18.94 1.28 17.82Q0 16.70 0 14.18L0 14.18L0 1.85L3.34 1.85L3.34 14.18Q3.34 15.19 3.79 15.58Q4.25 15.96 5.45 15.96L5.45 15.96L10.54 15.96ZM14.54 0Q15.67 0 16.01 0.35Q16.34 0.70 16.34 1.81Q16.34 2.93 16.00 3.28Q15.65 3.62 14.53 3.62Q13.42 3.62 13.07 3.26Q12.72 2.90 12.72 1.80Q12.72 0.70 13.07 0.35Q13.42 0 14.54 0ZM16.08 5.74L16.08 18.94L12.96 18.94L12.96 5.74L16.08 5.74ZM25.37 5.76L25.37 8.14L22.82 8.14L22.82 18.94L19.70 18.94L19.70 8.14L18.41 8.14L18.41 5.76L19.70 5.76L19.70 4.44Q19.70 2.98 20.64 1.92Q21.58 0.86 23.35 0.86L23.35 0.86L25.37 0.86L25.37 3.50L23.90 3.50Q22.82 3.50 22.82 4.63L22.82 4.63L22.82 5.76L25.37 5.76ZM38.04 12.82L38.04 12.82L30.05 12.82Q30.05 14.69 30.64 15.55Q31.22 16.42 33.00 16.42L33.00 16.42Q34.15 16.42 34.70 15.68Q35.26 14.95 35.26 14.28L35.26 14.28L38.06 14.28Q38.06 16.85 36.68 18.05Q35.30 19.25 33.04 19.25Q30.77 19.25 29.52 18.60L29.52 18.60Q26.95 17.28 26.95 11.59L26.95 11.59Q26.95 8.21 28.42 6.64Q29.88 5.06 32.88 5.06L32.88 5.06Q38.09 5.06 38.09 10.85L38.09 10.85Q38.09 11.47 38.04 12.82ZM30.12 10.68L30.12 10.68L35.26 10.68Q35.26 9.10 34.66 8.38Q34.06 7.66 32.82 7.66Q31.58 7.66 30.85 8.39Q30.12 9.12 30.12 10.68ZM44.50 1.85L44.50 18.94L41.16 18.94L41.16 1.85L44.50 1.85ZM58.87 9.74L58.87 18.94L55.75 18.94L55.75 10.18Q55.75 9 55.27 8.57Q54.79 8.14 53.93 8.14L53.93 8.14L51.12 9.31L51.12 18.94L48.00 18.94L48.00 5.23L50.33 5.23L51.05 6.86L54.89 5.09Q56.50 5.09 57.68 6.28Q58.87 7.46 58.87 9.74L58.87 9.74ZM73.49 1.85L73.49 4.82L67.46 4.82Q66.41 4.82 65.99 5.23Q65.57 5.64 65.57 6.65L65.57 6.65L65.57 9.02L71.83 9.02L71.59 12L65.57 12L65.57 18.94L62.23 18.94L62.23 5.33Q62.23 3.43 63.06 2.64Q63.89 1.85 65.90 1.85L65.90 1.85L73.49 1.85ZM83.57 12.74L83.57 12.74L83.57 11.50Q83.57 9.72 83.05 8.78Q82.54 7.85 80.90 7.85L80.90 7.85Q78.26 7.85 78.26 11.40L78.26 11.40L78.26 12.65Q78.26 16.46 80.90 16.46L80.90 16.46Q82.61 16.46 83.14 15.19L83.14 15.19Q83.57 14.18 83.57 12.74ZM86.69 12.02L86.69 12.02Q86.69 16.46 85.01 17.98L85.01 17.98Q83.59 19.27 80.90 19.27L80.90 19.27Q77.47 19.27 76.27 17.26L76.27 17.26Q75.14 15.41 75.14 12.02L75.14 12.02Q75.14 8.86 76.27 7.06L76.27 7.06Q77.52 5.04 80.82 5.04Q84.12 5.04 85.40 6.80Q86.69 8.57 86.69 12.02ZM99.82 9.74L99.82 18.94L96.70 18.94L96.70 10.18Q96.70 9 96.22 8.57Q95.74 8.14 94.87 8.14L94.87 8.14L92.06 9.31L92.06 18.94L88.94 18.94L88.94 5.23L91.27 5.23L91.99 6.86L95.83 5.09Q97.44 5.09 98.63 6.28Q99.82 7.46 99.82 9.74L99.82 9.74ZM112.90 0.89L112.90 18.94L110.81 18.94L109.85 17.28L106.51 19.08Q103.73 19.08 102.77 17.06L102.77 17.06Q102.29 16.08 102.11 14.94Q101.93 13.80 101.93 12.56Q101.93 11.33 101.95 10.74Q101.98 10.15 102.07 9.37Q102.17 8.59 102.35 8.06Q102.53 7.54 102.86 6.97Q103.20 6.41 103.68 6.07L103.68 6.07Q104.76 5.33 106.49 5.33L106.49 5.33L109.78 5.33L109.78 0.89L112.90 0.89ZM107.40 15.79L109.78 14.57L109.78 8.14L107.40 8.14Q106.08 8.14 105.56 9.14Q105.05 10.15 105.05 12.16Q105.05 14.16 105.54 14.98Q106.03 15.79 107.40 15.79L107.40 15.79ZM126.67 12.82L126.67 12.82L118.68 12.82Q118.68 14.69 119.27 15.55Q119.86 16.42 121.63 16.42L121.63 16.42Q122.78 16.42 123.34 15.68Q123.89 14.95 123.89 14.28L123.89 14.28L126.70 14.28Q126.70 16.85 125.32 18.05Q123.94 19.25 121.67 19.25Q119.40 19.25 118.15 18.60L118.15 18.60Q115.58 17.28 115.58 11.59L115.58 11.59Q115.58 8.21 117.05 6.64Q118.51 5.06 121.51 5.06L121.51 5.06Q126.72 5.06 126.72 10.85L126.72 10.85Q126.72 11.47 126.67 12.82ZM118.75 10.68L118.75 10.68L123.89 10.68Q123.89 9.10 123.29 8.38Q122.69 7.66 121.45 7.66Q120.22 7.66 119.48 8.39Q118.75 9.12 118.75 10.68ZM136.82 5.28L136.82 5.28L135.96 8.35Q135.60 8.21 135.14 8.21L135.14 8.21Q133.94 8.21 132.19 9.24L132.19 9.24L132.19 18.94L129.07 18.94L129.07 5.23L131.40 5.23L132.12 6.43L135.43 5.06Q135.67 5.04 136.08 5.04Q136.49 5.04 136.82 5.28ZM140.50 0Q141.62 0 141.96 0.35Q142.30 0.70 142.30 1.81Q142.30 2.93 141.95 3.28Q141.60 3.62 140.48 3.62Q139.37 3.62 139.02 3.26Q138.67 2.90 138.67 1.80Q138.67 0.70 139.02 0.35Q139.37 0 140.50 0ZM142.03 5.74L142.03 18.94L138.91 18.94L138.91 5.74L142.03 5.74ZM155.78 12.82L155.78 12.82L147.79 12.82Q147.79 14.69 148.38 15.55Q148.97 16.42 150.74 16.42L150.74 16.42Q151.90 16.42 152.45 15.68Q153 14.95 153 14.28L153 14.28L155.81 14.28Q155.81 16.85 154.43 18.05Q153.05 19.25 150.78 19.25Q148.51 19.25 147.26 18.60L147.26 18.60Q144.70 17.28 144.70 11.59L144.70 11.59Q144.70 8.21 146.16 6.64Q147.62 5.06 150.62 5.06L150.62 5.06Q155.83 5.06 155.83 10.85L155.83 10.85Q155.83 11.47 155.78 12.82ZM147.86 10.68L147.86 10.68L153 10.68Q153 9.10 152.40 8.38Q151.80 7.66 150.56 7.66Q149.33 7.66 148.60 8.39Q147.86 9.12 147.86 10.68Z" transform="translate(51, 5.032)"></path></svg>